<mxfile host="Electron" agent="Mozilla/5.0 (Windows NT 10.0; Win64; x64) AppleWebKit/537.36 (KHTML, like Gecko) draw.io/24.7.8 Chrome/128.0.6613.36 Electron/32.0.1 Safari/537.36" version="24.7.8">
  <diagram name="Page-1" id="magkBhk4KmJtrxDzVgJV">
    <mxGraphModel dx="1187" dy="955" grid="1" gridSize="10" guides="0" tooltips="1" connect="1" arrows="1" fold="1" page="1" pageScale="1" pageWidth="1" pageHeight="1" math="0" shadow="0">
      <root>
        <mxCell id="0" />
        <mxCell id="1" parent="0" />
        <mxCell id="6Fi_e5lVrd8VuNeaOpWh-1" value="Módulo de Carteira de Ações" style="swimlane;whiteSpace=wrap;html=1;" parent="1" vertex="1">
          <mxGeometry x="160" y="10" width="440" height="910" as="geometry" />
        </mxCell>
        <mxCell id="84PSGLY9zqhsk3KYUfHD-1" style="edgeStyle=none;curved=1;rounded=0;orthogonalLoop=1;jettySize=auto;html=1;exitX=0.5;exitY=0;exitDx=0;exitDy=0;entryX=0.5;entryY=1;entryDx=0;entryDy=0;fontSize=12;startSize=8;endSize=8;dashed=1;" parent="6Fi_e5lVrd8VuNeaOpWh-1" source="6Fi_e5lVrd8VuNeaOpWh-6" target="6Fi_e5lVrd8VuNeaOpWh-16" edge="1">
          <mxGeometry relative="1" as="geometry" />
        </mxCell>
        <mxCell id="84PSGLY9zqhsk3KYUfHD-2" value="&amp;lt;&amp;lt;includes&amp;gt;&amp;gt;" style="edgeLabel;html=1;align=center;verticalAlign=middle;resizable=0;points=[];fontSize=12;" parent="84PSGLY9zqhsk3KYUfHD-1" vertex="1" connectable="0">
          <mxGeometry x="-0.1214" y="1" relative="1" as="geometry">
            <mxPoint as="offset" />
          </mxGeometry>
        </mxCell>
        <mxCell id="6Fi_e5lVrd8VuNeaOpWh-6" value="UC-20&lt;div&gt;Agrupar ações na carteira&lt;/div&gt;" style="ellipse;whiteSpace=wrap;html=1;" parent="6Fi_e5lVrd8VuNeaOpWh-1" vertex="1">
          <mxGeometry x="130" y="190" width="180" height="80" as="geometry" />
        </mxCell>
        <mxCell id="6Fi_e5lVrd8VuNeaOpWh-9" value="UC-21&lt;div&gt;&lt;span style=&quot;background-color: initial;&quot;&gt;Visualizar extrato de ações&lt;/span&gt;&lt;/div&gt;" style="ellipse;whiteSpace=wrap;html=1;" parent="6Fi_e5lVrd8VuNeaOpWh-1" vertex="1">
          <mxGeometry x="130" y="310" width="180" height="80" as="geometry" />
        </mxCell>
        <mxCell id="6Fi_e5lVrd8VuNeaOpWh-10" value="UC-22&lt;div&gt;Visualizar sugestões de compra e venda de ações&lt;/div&gt;" style="ellipse;whiteSpace=wrap;html=1;" parent="6Fi_e5lVrd8VuNeaOpWh-1" vertex="1">
          <mxGeometry x="130" y="430" width="180" height="80" as="geometry" />
        </mxCell>
        <mxCell id="84PSGLY9zqhsk3KYUfHD-3" style="edgeStyle=none;curved=1;rounded=0;orthogonalLoop=1;jettySize=auto;html=1;entryX=1;entryY=1;entryDx=0;entryDy=0;fontSize=12;startSize=8;endSize=8;dashed=1;" parent="6Fi_e5lVrd8VuNeaOpWh-1" source="6Fi_e5lVrd8VuNeaOpWh-11" target="6Fi_e5lVrd8VuNeaOpWh-16" edge="1">
          <mxGeometry relative="1" as="geometry">
            <Array as="points">
              <mxPoint x="320" y="510" />
              <mxPoint x="360" y="340" />
            </Array>
          </mxGeometry>
        </mxCell>
        <mxCell id="84PSGLY9zqhsk3KYUfHD-4" value="&amp;lt;&amp;lt;includes&amp;gt;&amp;gt;" style="edgeLabel;html=1;align=center;verticalAlign=middle;resizable=0;points=[];fontSize=12;" parent="84PSGLY9zqhsk3KYUfHD-3" vertex="1" connectable="0">
          <mxGeometry x="-0.8687" y="3" relative="1" as="geometry">
            <mxPoint as="offset" />
          </mxGeometry>
        </mxCell>
        <mxCell id="6Fi_e5lVrd8VuNeaOpWh-11" value="UC-23&lt;div&gt;Consultar gráfico intraday e histórico de ação específica&lt;/div&gt;" style="ellipse;whiteSpace=wrap;html=1;" parent="6Fi_e5lVrd8VuNeaOpWh-1" vertex="1">
          <mxGeometry x="130" y="550" width="180" height="80" as="geometry" />
        </mxCell>
        <mxCell id="6Fi_e5lVrd8VuNeaOpWh-16" value="UC-19&lt;div&gt;Visualizar carteira de ações&lt;/div&gt;" style="ellipse;whiteSpace=wrap;html=1;" parent="6Fi_e5lVrd8VuNeaOpWh-1" vertex="1">
          <mxGeometry x="130" y="70" width="180" height="80" as="geometry" />
        </mxCell>
        <mxCell id="em-PWJja5tTNUCQDm3zD-1" value="UC-24&lt;div&gt;&lt;span style=&quot;background-color: initial;&quot;&gt;Personalizar visualização das cotações&lt;/span&gt;&lt;/div&gt;" style="ellipse;whiteSpace=wrap;html=1;" parent="6Fi_e5lVrd8VuNeaOpWh-1" vertex="1">
          <mxGeometry x="130" y="670" width="180" height="80" as="geometry" />
        </mxCell>
        <mxCell id="em-PWJja5tTNUCQDm3zD-3" value="UC-25&lt;div&gt;&lt;span style=&quot;background-color: initial;&quot;&gt;Configurar alertas de cotação&lt;/span&gt;&lt;/div&gt;" style="ellipse;whiteSpace=wrap;html=1;" parent="6Fi_e5lVrd8VuNeaOpWh-1" vertex="1">
          <mxGeometry x="130" y="790" width="180" height="80" as="geometry" />
        </mxCell>
        <mxCell id="84PSGLY9zqhsk3KYUfHD-9" style="edgeStyle=none;curved=1;rounded=0;orthogonalLoop=1;jettySize=auto;html=1;exitX=0;exitY=0;exitDx=0;exitDy=0;entryX=0.06;entryY=0.745;entryDx=0;entryDy=0;entryPerimeter=0;fontSize=12;startSize=8;endSize=8;dashed=1;" parent="6Fi_e5lVrd8VuNeaOpWh-1" source="6Fi_e5lVrd8VuNeaOpWh-9" target="6Fi_e5lVrd8VuNeaOpWh-16" edge="1">
          <mxGeometry relative="1" as="geometry">
            <Array as="points">
              <mxPoint x="70" y="230" />
            </Array>
          </mxGeometry>
        </mxCell>
        <mxCell id="84PSGLY9zqhsk3KYUfHD-10" value="&amp;lt;&amp;lt;includes&amp;gt;&amp;gt;" style="edgeLabel;html=1;align=center;verticalAlign=middle;resizable=0;points=[];fontSize=12;" parent="84PSGLY9zqhsk3KYUfHD-9" vertex="1" connectable="0">
          <mxGeometry x="-0.6696" y="-3" relative="1" as="geometry">
            <mxPoint as="offset" />
          </mxGeometry>
        </mxCell>
        <mxCell id="84PSGLY9zqhsk3KYUfHD-11" style="edgeStyle=none;curved=1;rounded=0;orthogonalLoop=1;jettySize=auto;html=1;exitX=0;exitY=0;exitDx=0;exitDy=0;entryX=0;entryY=0.625;entryDx=0;entryDy=0;entryPerimeter=0;fontSize=12;startSize=8;endSize=8;dashed=1;" parent="6Fi_e5lVrd8VuNeaOpWh-1" source="6Fi_e5lVrd8VuNeaOpWh-10" target="6Fi_e5lVrd8VuNeaOpWh-16" edge="1">
          <mxGeometry relative="1" as="geometry">
            <Array as="points">
              <mxPoint x="40" y="290" />
            </Array>
          </mxGeometry>
        </mxCell>
        <mxCell id="84PSGLY9zqhsk3KYUfHD-12" value="&amp;lt;&amp;lt;includes&amp;gt;&amp;gt;" style="edgeLabel;html=1;align=center;verticalAlign=middle;resizable=0;points=[];fontSize=12;" parent="84PSGLY9zqhsk3KYUfHD-11" vertex="1" connectable="0">
          <mxGeometry x="-0.8204" y="-3" relative="1" as="geometry">
            <mxPoint as="offset" />
          </mxGeometry>
        </mxCell>
        <mxCell id="em-PWJja5tTNUCQDm3zD-21" style="edgeStyle=none;curved=1;rounded=0;orthogonalLoop=1;jettySize=auto;html=1;fontSize=12;startSize=8;endSize=8;endArrow=none;endFill=0;" parent="1" source="6Fi_e5lVrd8VuNeaOpWh-2" edge="1">
          <mxGeometry relative="1" as="geometry">
            <mxPoint x="190" y="480" as="targetPoint" />
          </mxGeometry>
        </mxCell>
        <mxCell id="6Fi_e5lVrd8VuNeaOpWh-2" value="Usuário" style="shape=umlActor;verticalLabelPosition=bottom;verticalAlign=top;html=1;outlineConnect=0;" parent="1" vertex="1">
          <mxGeometry x="110" y="450" width="30" height="60" as="geometry" />
        </mxCell>
        <mxCell id="em-PWJja5tTNUCQDm3zD-5" style="edgeStyle=none;curved=1;rounded=0;orthogonalLoop=1;jettySize=auto;html=1;fontSize=12;startSize=8;endSize=8;endArrow=none;endFill=0;" parent="1" source="XbBQ54yWR8MxngpIoZ2N-11" edge="1">
          <mxGeometry relative="1" as="geometry">
            <mxPoint x="580" y="480" as="targetPoint" />
          </mxGeometry>
        </mxCell>
        <mxCell id="XbBQ54yWR8MxngpIoZ2N-11" value="API B3" style="shape=umlActor;verticalLabelPosition=bottom;verticalAlign=top;html=1;outlineConnect=0;" parent="1" vertex="1">
          <mxGeometry x="630" y="450" width="30" height="60" as="geometry" />
        </mxCell>
        <mxCell id="em-PWJja5tTNUCQDm3zD-6" value="" style="endArrow=none;html=1;rounded=0;fontSize=12;startSize=8;endSize=8;curved=1;entryX=1;entryY=0.5;entryDx=0;entryDy=0;" parent="1" target="6Fi_e5lVrd8VuNeaOpWh-16" edge="1">
          <mxGeometry width="50" height="50" relative="1" as="geometry">
            <mxPoint x="580" y="480" as="sourcePoint" />
            <mxPoint x="370" y="310" as="targetPoint" />
          </mxGeometry>
        </mxCell>
        <mxCell id="em-PWJja5tTNUCQDm3zD-7" value="" style="endArrow=none;html=1;rounded=0;fontSize=12;startSize=8;endSize=8;curved=1;entryX=1;entryY=0.5;entryDx=0;entryDy=0;" parent="1" target="6Fi_e5lVrd8VuNeaOpWh-9" edge="1">
          <mxGeometry width="50" height="50" relative="1" as="geometry">
            <mxPoint x="580" y="480" as="sourcePoint" />
            <mxPoint x="370" y="440" as="targetPoint" />
          </mxGeometry>
        </mxCell>
        <mxCell id="em-PWJja5tTNUCQDm3zD-8" value="" style="endArrow=none;html=1;rounded=0;fontSize=12;startSize=8;endSize=8;curved=1;exitX=1;exitY=0.5;exitDx=0;exitDy=0;" parent="1" source="6Fi_e5lVrd8VuNeaOpWh-11" edge="1">
          <mxGeometry width="50" height="50" relative="1" as="geometry">
            <mxPoint x="320" y="630" as="sourcePoint" />
            <mxPoint x="580" y="480" as="targetPoint" />
          </mxGeometry>
        </mxCell>
        <mxCell id="em-PWJja5tTNUCQDm3zD-10" value="" style="endArrow=none;html=1;rounded=0;fontSize=12;startSize=8;endSize=8;curved=1;exitX=1;exitY=0.5;exitDx=0;exitDy=0;" parent="1" source="6Fi_e5lVrd8VuNeaOpWh-10" edge="1">
          <mxGeometry width="50" height="50" relative="1" as="geometry">
            <mxPoint x="320" y="490" as="sourcePoint" />
            <mxPoint x="580" y="480" as="targetPoint" />
          </mxGeometry>
        </mxCell>
        <mxCell id="em-PWJja5tTNUCQDm3zD-22" value="" style="endArrow=none;html=1;rounded=0;fontSize=12;startSize=8;endSize=8;curved=1;" parent="1" edge="1">
          <mxGeometry width="50" height="50" relative="1" as="geometry">
            <mxPoint x="190" y="480" as="sourcePoint" />
            <mxPoint x="220" y="120" as="targetPoint" />
          </mxGeometry>
        </mxCell>
        <mxCell id="em-PWJja5tTNUCQDm3zD-23" value="" style="endArrow=none;html=1;rounded=0;fontSize=12;startSize=8;endSize=8;curved=1;" parent="1" edge="1">
          <mxGeometry width="50" height="50" relative="1" as="geometry">
            <mxPoint x="190" y="480" as="sourcePoint" />
            <mxPoint x="240" y="240" as="targetPoint" />
          </mxGeometry>
        </mxCell>
        <mxCell id="em-PWJja5tTNUCQDm3zD-25" value="" style="endArrow=none;html=1;rounded=0;fontSize=12;startSize=8;endSize=8;curved=1;entryX=0;entryY=0.5;entryDx=0;entryDy=0;" parent="1" target="6Fi_e5lVrd8VuNeaOpWh-16" edge="1">
          <mxGeometry width="50" height="50" relative="1" as="geometry">
            <mxPoint x="220" y="120" as="sourcePoint" />
            <mxPoint x="360" y="240" as="targetPoint" />
          </mxGeometry>
        </mxCell>
        <mxCell id="em-PWJja5tTNUCQDm3zD-26" value="" style="endArrow=none;html=1;rounded=0;fontSize=12;startSize=8;endSize=8;curved=1;entryX=0;entryY=0.5;entryDx=0;entryDy=0;" parent="1" target="6Fi_e5lVrd8VuNeaOpWh-6" edge="1">
          <mxGeometry width="50" height="50" relative="1" as="geometry">
            <mxPoint x="240" y="240" as="sourcePoint" />
            <mxPoint x="360" y="300" as="targetPoint" />
          </mxGeometry>
        </mxCell>
        <mxCell id="em-PWJja5tTNUCQDm3zD-29" value="" style="endArrow=none;html=1;rounded=0;fontSize=12;startSize=8;endSize=8;curved=1;entryX=0;entryY=0.5;entryDx=0;entryDy=0;" parent="1" target="em-PWJja5tTNUCQDm3zD-3" edge="1">
          <mxGeometry width="50" height="50" relative="1" as="geometry">
            <mxPoint x="240" y="840" as="sourcePoint" />
            <mxPoint x="360" y="900" as="targetPoint" />
          </mxGeometry>
        </mxCell>
        <mxCell id="em-PWJja5tTNUCQDm3zD-30" value="" style="endArrow=none;html=1;rounded=0;fontSize=12;startSize=8;endSize=8;curved=1;" parent="1" edge="1">
          <mxGeometry width="50" height="50" relative="1" as="geometry">
            <mxPoint x="240" y="840" as="sourcePoint" />
            <mxPoint x="190" y="480" as="targetPoint" />
          </mxGeometry>
        </mxCell>
        <mxCell id="em-PWJja5tTNUCQDm3zD-33" value="" style="endArrow=none;html=1;rounded=0;fontSize=12;startSize=8;endSize=8;curved=1;entryX=0;entryY=0.5;entryDx=0;entryDy=0;" parent="1" target="6Fi_e5lVrd8VuNeaOpWh-9" edge="1">
          <mxGeometry width="50" height="50" relative="1" as="geometry">
            <mxPoint x="250" y="360" as="sourcePoint" />
            <mxPoint x="360" y="440" as="targetPoint" />
          </mxGeometry>
        </mxCell>
        <mxCell id="em-PWJja5tTNUCQDm3zD-34" value="" style="endArrow=none;html=1;rounded=0;fontSize=12;startSize=8;endSize=8;curved=1;" parent="1" edge="1">
          <mxGeometry width="50" height="50" relative="1" as="geometry">
            <mxPoint x="190" y="480" as="sourcePoint" />
            <mxPoint x="250" y="360" as="targetPoint" />
          </mxGeometry>
        </mxCell>
        <mxCell id="em-PWJja5tTNUCQDm3zD-35" value="" style="endArrow=none;html=1;rounded=0;fontSize=12;startSize=8;endSize=8;curved=1;entryX=0;entryY=0.5;entryDx=0;entryDy=0;" parent="1" target="6Fi_e5lVrd8VuNeaOpWh-10" edge="1">
          <mxGeometry width="50" height="50" relative="1" as="geometry">
            <mxPoint x="260" y="480" as="sourcePoint" />
            <mxPoint x="360" y="440" as="targetPoint" />
          </mxGeometry>
        </mxCell>
        <mxCell id="em-PWJja5tTNUCQDm3zD-36" value="" style="endArrow=none;html=1;rounded=0;fontSize=12;startSize=8;endSize=8;curved=1;" parent="1" edge="1">
          <mxGeometry width="50" height="50" relative="1" as="geometry">
            <mxPoint x="190" y="480" as="sourcePoint" />
            <mxPoint x="260" y="480" as="targetPoint" />
          </mxGeometry>
        </mxCell>
        <mxCell id="em-PWJja5tTNUCQDm3zD-37" value="" style="endArrow=none;html=1;rounded=0;fontSize=12;startSize=8;endSize=8;curved=1;entryX=0;entryY=0.5;entryDx=0;entryDy=0;" parent="1" target="6Fi_e5lVrd8VuNeaOpWh-11" edge="1">
          <mxGeometry width="50" height="50" relative="1" as="geometry">
            <mxPoint x="190" y="480" as="sourcePoint" />
            <mxPoint x="360" y="570" as="targetPoint" />
          </mxGeometry>
        </mxCell>
        <mxCell id="em-PWJja5tTNUCQDm3zD-38" value="" style="endArrow=none;html=1;rounded=0;fontSize=12;startSize=8;endSize=8;curved=1;entryX=0;entryY=0.5;entryDx=0;entryDy=0;" parent="1" target="em-PWJja5tTNUCQDm3zD-1" edge="1">
          <mxGeometry width="50" height="50" relative="1" as="geometry">
            <mxPoint x="260" y="720" as="sourcePoint" />
            <mxPoint x="360" y="640" as="targetPoint" />
          </mxGeometry>
        </mxCell>
        <mxCell id="em-PWJja5tTNUCQDm3zD-39" value="" style="endArrow=none;html=1;rounded=0;fontSize=12;startSize=8;endSize=8;curved=1;" parent="1" edge="1">
          <mxGeometry width="50" height="50" relative="1" as="geometry">
            <mxPoint x="190" y="480" as="sourcePoint" />
            <mxPoint x="260" y="720" as="targetPoint" />
          </mxGeometry>
        </mxCell>
      </root>
    </mxGraphModel>
  </diagram>
</mxfile>
